<?xml version="1.0" standalone="no"?><!DOCTYPE svg PUBLIC "-//W3C//DTD SVG 1.1//EN" "http://www.w3.org/Graphics/SVG/1.1/DTD/svg11.dtd"><svg class="icon" style="width: 5em; height: 5em;vertical-align: middle;fill: currentColor;overflow: hidden;" viewBox="0 0 1024 1024" version="1.1" xmlns="http://www.w3.org/2000/svg"><path d="M456.157746 543.098592s0.630986 0.270423 1.802817 0.721126c-1.171831-0.450704-1.802817-0.721127-1.802817-0.721126zM456.157746 543.098592s0.270423 0.630986 0.811268 1.802816c-0.540845-1.171831-0.811268-1.802817-0.811268-1.802816zM456.157746 543.098592s-0.270423 0.630986-0.721126 1.802816c0.450704-1.171831 0.721127-1.802817 0.721126-1.802816zM454.264789 542.377465c1.171831 0.450704 1.802817 0.721127 1.802817 0.721127 0.090141 0-0.540845-0.270423-1.802817-0.721127z" fill="#426020" /><path d="M454.35493 543.819718c1.171831-0.540845 1.802817-0.811268 1.802816-0.811267 0 0.090141-0.630986 0.360563-1.802816 0.811267zM456.157746 543.098592s0.630986-0.270423 1.802817-0.811268c-1.171831 0.540845-1.802817 0.811268-1.802817 0.811268z" fill="#426020" /><path d="M828.259155 672.180282c-10.366197-12.078873-18.028169-29.656338-25.329578-46.602817-8.022535-18.478873-15.594366-35.966197-27.222535-48.766197-13.88169-16.676056-27.132394-28.484507-42.456338-38.219719 17.577465-10.907042 32.540845-24.067606 47.053521-43.628169 0.270423-0.450704 0.630986-0.811268 0.901409-1.261972 6.580282-10.726761 11.267606-24.157746 16.135211-38.4 6.760563-19.470423 13.701408-39.571831 25.960563-54.895774 4.146479-5.228169 5.138028-12.349296 2.523944-18.478873-2.704225-6.129577-8.473239-10.276056-15.143662-10.816902-14.512676-1.08169-30.377465-6.940845-46.692958-13.340845l-8.292957-3.24507c-17.757746-6.940845-33.802817-12.8-49.577465-13.611268-20.822535-1.892958-38.4-1.171831-57.059155 3.064789 4.687324-20.101408 6.039437-40.022535 2.433803-64.090141-0.090141-0.540845-0.180282-0.991549-0.270423-1.532394-2.974648-12.259155-9.104225-25.059155-15.684507-38.580282-9.014085-18.569014-18.298592-37.678873-20.461972-57.149296-0.721127-6.670423-5.047887-12.349296-11.267605-14.783098-6.219718-2.433803-13.250704-1.261972-18.298592 3.064788-12.078873 10.366197-29.656338 18.028169-46.602817 25.329578-18.478873 8.022535-35.966197 15.594366-48.766197 27.222535-16.676056 13.88169-28.484507 27.132394-38.219718 42.456338-10.907042-17.577465-24.067606-32.540845-43.628169-47.053521-0.450704-0.270423-0.811268-0.630986-1.261972-0.901409-5.228169-3.24507-11.447887-6.219718-19.470423-9.374648-5.949296-2.343662-12.259155-4.507042-18.839436-6.850704-6.760563-2.343662-13.791549-4.777465-20.642254-7.48169-14.873239-5.859155-25.780282-11.71831-34.253521-18.478873-5.228169-4.146479-12.349296-5.138028-18.478873-2.523944-6.129577 2.704225-10.276056 8.473239-10.816902 15.143662-1.171831 15.864789-8.202817 33.622535-15.053521 50.839437-7.391549 18.749296-14.422535 36.416901-15.233802 53.723943-1.983099 21.633803-0.901408 39.301408 3.064788 57.059155-20.101408-4.687324-40.022535-6.039437-64.090141-2.433802-0.540845 0.090141-0.991549 0.180282-1.532394 0.270422-12.259155 2.884507-25.059155 9.104225-38.580282 15.684507-18.569014 9.014085-37.678873 18.298592-57.149295 20.461972-6.670423 0.721127-12.349296 5.047887-14.783099 11.267606-2.433803 6.219718-1.261972 13.340845 3.064789 18.388732 10.366197 12.078873 18.028169 29.656338 25.329577 46.602817 8.022535 18.478873 15.594366 35.966197 27.222535 48.766197 13.88169 16.676056 27.132394 28.484507 42.456338 38.219718-17.577465 10.907042-32.540845 24.067606-47.053521 43.628169-0.270423 0.450704-0.630986 0.811268-0.901408 1.261972-6.670423 10.997183-11.357746 24.428169-16.315493 38.580282-6.760563 19.470423-13.701408 39.571831-25.960563 54.895775-4.146479 5.228169-5.138028 12.349296-2.523944 18.478873 1.892958 4.507042 5.588732 7.842254 9.915493 9.64507 1.622535 0.630986 3.425352 1.08169 5.228169 1.171831 14.512676 1.08169 30.377465 6.940845 46.692958 13.340845l8.292957 3.245071c17.757746 6.940845 33.802817 12.8 49.577465 13.611267 21.633803 1.983099 39.301408 0.901408 57.059155-3.064788-4.687324 20.101408-6.039437 40.022535-2.433803 64.09014 0.090141 0.540845 0.180282 0.991549 0.270423 1.532395 2.884507 12.259155 9.104225 25.059155 15.684507 38.580282 9.014085 18.569014 18.298592 37.678873 20.461972 57.149295 0.721127 6.670423 5.047887 12.349296 11.267605 14.783099 6.219718 2.433803 13.250704 1.261972 18.298592-3.064789 12.078873-10.366197 29.656338-18.028169 46.602817-25.329577 18.478873-8.022535 35.966197-15.594366 48.766197-27.222536 16.676056-13.88169 28.484507-27.132394 38.219718-42.456338 10.907042 17.577465 24.067606 32.540845 43.628169 47.053522 0.450704 0.270423 0.811268 0.630986 1.261972 0.901408 5.228169 3.24507 11.447887 6.219718 19.470423 9.374648 6.039437 2.343662 12.259155 4.507042 18.839436 6.850704 6.760563 2.343662 13.791549 4.777465 20.642254 7.48169 14.873239 5.859155 25.780282 11.71831 34.253521 18.478874 1.442254 1.171831 3.064789 2.073239 4.687324 2.704225 4.416901 1.712676 9.284507 1.712676 13.791549-0.270423 6.129577-2.704225 10.276056-8.473239 10.816901-15.143662 1.171831-15.864789 8.202817-33.622535 15.053522-50.839436 7.391549-18.749296 14.422535-36.416901 15.233802-53.723944 1.983099-21.633803 0.901408-39.301408-3.064788-57.059155 20.101408 4.687324 40.022535 6.039437 64.090141 2.433803 0.540845-0.090141 0.991549-0.180282 1.532394-0.270423 12.259155-2.884507 25.059155-9.104225 38.580282-15.684507 18.569014-9.014085 37.678873-18.298592 57.149295-20.461971 6.670423-0.721127 12.349296-5.047887 14.783099-11.267606 2.614085-6.309859 1.442254-13.430986-2.884507-18.478873z m-84.642254 17.667605c-11.357746 5.498592-22.174648 10.726761-30.467605 12.890141-34.16338 4.867606-56.698592-1.983099-99.425352-18.749296-24.338028-9.55493-45.521127-24.157746-63.188733-40.112676-8.653521 8.743662-18.388732 16.315493-28.935211 22.35493 24.51831 22.985915 51.2 40.383099 78.96338 51.290141 4.507042 1.802817 8.923944 3.515493 13.160564 5.047887 9.014085 25.329577 10.816901 42.997183 8.56338 67.335211 0 0.360563-0.090141 0.630986-0.090141 0.99155-0.450704 11.357746-6.4 26.411268-12.709859 42.456338-4.146479 10.546479-8.653521 21.814085-11.988732 33.532394-5.949296-3.064789-12.529577-5.949296-19.740846-8.833803-7.571831-2.974648-14.873239-5.498592-21.994366-8.022535-6.219718-2.16338-12.169014-4.23662-17.487324-6.309859-5.588732-2.16338-9.915493-4.23662-13.160563-6.129578-27.673239-20.732394-38.670423-41.464789-56.969014-83.560563-10.005634-22.895775-14.602817-46.96338-16.135211-69.769014-12.078873-0.180282-24.338028-1.983099-36.416902-5.588732 1.352113 32.721127 7.842254 63.098592 19.470423 89.780281 1.983099 4.416901 3.876056 8.743662 5.678873 12.890141-11.538028 24.247887-22.715493 38.039437-41.64507 53.633803-0.270423 0.180282-0.450704 0.450704-0.721127 0.630986-8.383099 7.661972-23.256338 14.152113-39.030986 21.002817-10.366197 4.507042-21.543662 9.374648-32.180282 15.143662-4.867606-14.873239-11.538028-28.664789-17.667605-41.374648-5.498592-11.357746-10.726761-22.174648-12.890141-30.467606-4.867606-34.16338 1.983099-56.698592 18.749295-99.425352 9.194366-23.346479 22.985915-43.71831 38.129578-60.935211-8.383099-9.284507-15.414085-19.560563-20.912676-30.647888-22.715493 24.428169-40.022535 50.929577-50.839437 78.422536-1.802817 4.507042-3.515493 8.923944-5.047887 13.160563-25.329577 9.014085-42.997183 10.816901-67.335211 8.56338-0.360563 0-0.630986-0.090141-0.99155-0.090141-10.366197-0.450704-24.067606-5.498592-38.4-11.177464l-8.292957-3.245071c-9.825352-3.876056-19.470423-7.48169-29.295775-10.366197 7.121127-13.88169 12.078873-28.394366 16.766197-41.735211 4.146479-11.988732 8.022535-23.256338 12.439437-30.647888 20.732394-27.673239 41.464789-38.670423 83.560563-56.969014 22.084507-9.64507 46.692958-15.143662 73.645071-16.495774 0.901408-12.169014 3.515493-24.338028 7.932394-36.23662-31.008451 0.540845-64.180282 5.859155-95.909859 19.740845-4.416901 1.983099-8.743662 3.876056-12.890141 5.678873-24.247887-11.538028-38.039437-22.715493-53.633803-41.64507-0.180282-0.270423-0.450704-0.450704-0.630986-0.721127-7.661972-8.383099-14.152113-23.256338-21.002817-39.030986-4.507042-10.366197-9.374648-21.543662-15.143662-32.180281 14.873239-4.867606 28.664789-11.538028 41.374648-17.667606 11.357746-5.498592 22.174648-10.726761 30.467606-12.890141 34.16338-4.867606 56.698592 1.983099 99.425352 18.749296 26.140845 10.276056 48.585915 26.411268 67.064789 43.628169 9.464789-8.112676 19.921127-14.873239 31.188732-20.011268-26.230986-25.960563-54.985915-45.340845-85.092958-57.149296-4.507042-1.802817-8.923944-3.515493-13.160563-5.047887-9.014085-25.329577-10.816901-42.997183-8.56338-67.335211 0-0.360563 0.090141-0.630986 0.090141-0.991549 0.450704-11.357746 6.4-26.411268 12.709859-42.456338 4.146479-10.546479 8.653521-21.814085 11.988732-33.532395 5.949296 3.064789 12.529577 5.949296 19.740845 8.833803 7.571831 2.974648 14.873239 5.498592 21.994366 8.022535 6.219718 2.16338 12.169014 4.23662 17.487324 6.309859 5.588732 2.16338 9.915493 4.23662 13.160564 6.129578 27.673239 20.732394 38.670423 41.464789 56.969014 83.560563 11.71831 26.771831 16.04507 55.256338 16.676056 81.307042 12.078873 0.630986 24.157746 2.884507 36.146479 6.940846 0-37.678873-6.580282-72.473239-19.740845-102.580282-1.983099-4.416901-3.876056-8.743662-5.678873-12.890141 11.538028-24.247887 22.715493-38.039437 41.64507-53.633803 0.270423-0.180282 0.450704-0.450704 0.721127-0.630986 8.383099-7.661972 23.256338-14.152113 39.030986-21.002817 10.366197-4.507042 21.543662-9.374648 32.180281-15.143662 4.867606 14.873239 11.538028 28.664789 17.667606 41.374648 5.498592 11.357746 10.726761 22.174648 12.890141 30.467606 4.056338 28.304225 0 48.676056-11.087324 79.143662v0.090141c-1.532394 4.146479-3.24507 8.743662-5.31831 14.061972-0.090141 0.270423-0.180282 0.540845-0.270422 0.721126-0.270423 0.721127-0.540845 1.352113-0.811268 2.07324l-1.08169 2.704225c-0.090141 0.180282-0.180282 0.360563-0.180282 0.540845-5.949296 15.053521-13.791549 28.935211-22.715493 41.464789-5.31831 7.571831-11.087324 14.602817-16.946479 21.183099-1.983099 2.16338-3.876056 4.326761-5.859155 6.4 8.56338 8.833803 15.774648 18.839437 21.543662 29.476056l1.983099-1.983099c4.777465-4.867606 9.374648-9.915493 13.701408-14.96338 1.08169-1.261972 2.16338-2.523944 3.15493-3.785915 2.073239-2.523944 4.146479-5.138028 6.129577-7.752113 1.983099-2.614085 3.876056-5.228169 5.769015-7.842254 11.177465-15.774648 20.191549-32.270423 26.771831-49.036619 0.450704-1.171831 0.901408-2.253521 1.261971-3.335212 1.352113-3.335211 2.614085-6.670423 3.785916-9.915493 24.51831-8.743662 42.366197-10.816901 67.335211-8.473239 0.360563 0 0.630986 0.090141 0.991549 0.090141 10.366197 0.450704 24.067606 5.498592 38.4 11.177465l8.292958 3.24507c9.825352 3.876056 19.470423 7.48169 29.295775 10.366197-7.121127 13.88169-12.078873 28.394366-16.766197 41.735211-4.146479 11.988732-8.022535 23.256338-12.439437 30.647888-20.732394 27.673239-41.464789 38.670423-83.560563 56.969014-23.166197 10.095775-49.126761 15.684507-77.701409 16.676056 0.090141 11.988732-1.442254 24.067606-4.687324 36.146479 31.278873-0.540845 64.811268-5.769014 96.811268-19.740845 4.416901-1.983099 8.743662-3.876056 12.890141-5.678873 24.247887 11.538028 38.039437 22.715493 53.633803 41.64507 0.180282 0.270423 0.450704 0.450704 0.630985 0.721127 7.661972 8.383099 14.152113 23.256338 21.002817 39.030986 4.507042 10.366197 9.374648 21.543662 15.143662 32.180282-14.873239 4.687324-28.664789 11.357746-41.374648 17.577464z" fill="#426020" /><path d="M397.746479 691.740845c-78.873239-30.91831-117.814085-120.247887-86.805634-199.121127 30.91831-78.873239 120.247887-117.814085 199.121127-86.805633S627.785915 526.061972 596.867606 604.84507c-31.008451 78.873239-120.247887 117.814085-199.121127 86.895775z m99.154929-252.394366c-60.304225-23.707042-128.721127 6.129577-152.338028 66.433803-23.707042 60.304225 6.129577 128.721127 66.433803 152.338028 60.304225 23.707042 128.721127-6.129577 152.338028-66.433803 23.616901-60.304225-6.129577-128.630986-66.433803-152.338028z" fill="#426020" /><path d="M485.904225 628.732394c-2.614085-0.991549-4.957746-2.884507-6.580281-5.498591-3.966197-6.309859-1.983099-14.692958 4.416901-18.569014 29.926761-18.569014 39.211268-58.050704 20.732394-87.977465-3.966197-6.309859-1.983099-14.692958 4.416902-18.569014 6.309859-3.966197 14.692958-1.983099 18.569014 4.416901 26.411268 42.63662 13.160563 98.794366-29.476056 125.205634-3.785915 2.253521-8.202817 2.523944-12.078874 0.991549z" fill="#426020" /><path d="M460.574648 473.6c9.284507 1.261972 14.96338 2.884507 23.256338 7.391549M455.616901 486.219718c-5.678873-2.253521-9.284507-8.112676-8.473239-14.422535 0.991549-7.391549 7.842254-12.619718 15.233803-11.538028 11.447887 1.532394 18.478873 3.785915 27.853521 8.833803 6.580282 3.515493 9.014085 11.808451 5.408451 18.298591-3.515493 6.580282-11.808451 9.014085-18.298592 5.408451-6.4-3.515493-10.456338-4.777465-18.569014-5.859155-1.171831-0.090141-2.16338-0.360563-3.15493-0.721127z" fill="#426020" /></svg>